<?xml version="1.0" encoding="UTF-8"?>
<svg id="Capa_1" data-name="Capa 1" xmlns="http://www.w3.org/2000/svg" viewBox="0 0 1200 300">
  <defs>
    <style>
      .cls-1 {
        fill: #3596ef;
      }

      .cls-2 {
        fill: none;
        stroke: #000;
        stroke-miterlimit: 10;
      }
    </style>
  </defs>
  <g>
    <path class="cls-1" d="m1092.77,94.41c-1.47-1.4-2.95-2.79-4.45-4.17-1.46-1.34-2.37-2.97-2.8-4.9-.44-2.01-.92-4.01-1.4-6.01-.95-3.95-4.01-6.61-7.96-6.9-2.08-.15-4.17-.29-6.26-.35-2.11-.06-3.96-.72-5.63-2-1.56-1.2-3.15-2.38-4.73-3.55-3.58-2.65-7.53-2.65-11.09.01-1.65,1.23-3.3,2.46-4.94,3.7-1.38,1.04-2.92,1.67-4.64,1.79-2.14.15-4.29.28-6.43.36-4.32.16-7.55,2.77-8.56,6.95-.47,1.97-.96,3.94-1.38,5.93-.43,2-1.38,3.67-2.89,5.04-1.48,1.35-2.93,2.73-4.39,4.1-3.2,3.03-3.88,6.91-1.92,10.86.91,1.82,1.81,3.63,2.75,5.43.97,1.84,1.21,3.77.93,5.82-.32,2.33-.56,4.66-.82,6.89.15,3.97,1.94,6.72,5.45,8.31,1.87.85,3.77,1.65,5.67,2.43,1.9.77,3.36,2.01,4.46,3.73,1.18,1.86,2.35,3.74,3.64,5.52,2.16,2.97,5.12,4.26,8.74,3.53,2.37-.49,4.68-1.3,7.01-2.01,1.83-.56,3.64-.62,5.48-.06,1.97.6,3.94,1.18,5.91,1.78,4.26,1.3,8-.03,10.44-3.73,1.1-1.67,2.21-3.33,3.28-5.03,1.07-1.7,2.52-2.92,4.38-3.69,2.06-.85,4.12-1.71,6.14-2.66,3.46-1.62,5.37-5.1,4.97-8.88-.18-1.64-.33-3.29-.62-4.92-.5-2.88-.17-5.58,1.36-8.13.82-1.36,1.46-2.83,2.18-4.26,2-4,1.33-7.86-1.9-10.93Zm-38.74,39.91c-15.7.04-28.54-12.81-28.5-28.5.04-15.73,12.73-28.41,28.46-28.46,15.7-.04,28.54,12.81,28.5,28.5-.04,15.73-12.73,28.42-28.46,28.46Z"/>
    <path class="cls-1" d="m1054.03,80.15c-14.14-.06-25.67,11.45-25.73,25.66-.06,14.14,11.45,25.67,25.66,25.73,14.14.06,25.69-11.46,25.73-25.66.04-14.15-11.44-25.67-25.66-25.72Zm14.5,20.7c-5.04,5.13-10.1,10.24-15.18,15.34-1.59,1.59-3.86,1.59-5.45.02-2.83-2.79-5.64-5.6-8.43-8.43-1.57-1.59-1.53-3.94.01-5.45,1.49-1.46,3.84-1.45,5.4.08,1.9,1.87,3.76,3.78,5.52,5.55,3.51-3.42,6.94-6.75,10.37-10.1.79-.77,1.54-1.58,2.33-2.35,1.62-1.55,3.96-1.57,5.46-.05,1.49,1.5,1.52,3.82-.03,5.39Z"/>
  </g>
  <line class="cls-2" x1="946.5" y1="66.5" x2="946.5" y2="243.5"/>
  <g>
    <g>
      <path d="m1009.71,163.48v30.68h-6.9v-30.68h-6.79v-6.07h20.42v6.07h-6.73Z"/>
      <path d="m1019.7,194.16v-26.49h5.79v26.49h-5.79Zm.06-30.02v-5.57h5.63v5.57h-5.63Z"/>
      <path d="m1038.8,194.6c-4.8,0-8.11-3.37-8.11-8.39v-10.6c0-4.97,3.31-8.39,8.11-8.39s7.89,3.42,7.89,8.39v5.85h-10.37v5.68c0,1.66.88,2.76,2.54,2.76,1.82,0,2.59-1.1,2.59-2.76v-2.59h5.24v1.71c0,5.02-3.03,8.33-7.89,8.33Zm2.54-19.87c0-1.71-.88-2.81-2.48-2.81s-2.54,1.1-2.54,2.81v3.97h5.02v-3.97Z"/>
      <path d="m1062.53,194.16v-19.54c0-1.6-.94-2.65-2.26-2.65-1.77,0-2.81,2.26-2.81,3.64v18.54h-5.79v-26.49h5.02l.33,4.3c1.1-3.15,3.26-4.75,5.68-4.75,3.64,0,5.63,2.65,5.63,6.62v20.31h-5.79Z"/>
      <path d="m1085.43,194.16l-.33-3.03c-1.05,2.43-3.2,3.48-5.46,3.48-3.97,0-6.24-3.03-6.24-7.28v-12.86c0-4.14,2.48-7.23,5.74-7.23,2.32,0,3.64.88,4.97,2.59v-12.42h5.79v36.75h-4.47Zm-1.32-19.15c0-1.88-.99-3.04-2.54-3.04s-2.54,1.1-2.54,3.15v11.7c0,2.04.99,3.15,2.54,3.15,1.38,0,2.54-1.1,2.54-3.03v-11.92Z"/>
      <path d="m1110.6,194.6c-2.15,0-3.75-.99-4.3-3.37-1.27,2.21-3.31,3.37-5.9,3.37-3.48,0-6.02-2.48-6.02-6.79v-.77c0-5.35,4.47-7.4,10.65-8.94v-3.81c0-1.43-.72-2.32-2.26-2.32s-2.15.83-2.15,2.43v1.93h-5.3v-1.66c0-4.25,2.43-7.45,7.73-7.45s7.62,3.42,7.62,8.06v13.8c0,.88.39,1.32,1.32,1.38v4.14h-1.38Zm-5.57-12.86c-3.48.77-5.13,2.1-5.13,4.53v1.49c0,1.43.77,2.48,2.21,2.48,1.6,0,2.92-1.16,2.92-2.76v-5.74Z"/>
    </g>
    <g>
      <path d="m1009.22,241c-4.86,0-8.17-3.2-8.17-8.5v-10.32c0-5.24,3.31-8.55,8.17-8.55s8.11,3.31,8.11,8.55v10.32c0,5.3-3.31,8.5-8.11,8.5Zm2.48-19.92c0-1.6-.99-2.76-2.48-2.76-1.6,0-2.48,1.16-2.48,2.76v12.53c0,1.6.88,2.7,2.48,2.7,1.49,0,2.48-1.1,2.48-2.7v-12.53Z"/>
      <path d="m1030.08,219.09v21.47h-5.85v-21.47h-2.92v-4.75h2.92v-2.04c0-5.24,2.37-8.5,7.73-8.5h1.82v4.58h-.94c-2.26,0-2.93,1.1-2.93,3.09v2.87h3.7v4.75h-3.53Z"/>
      <path d="m1037.47,240.56v-26.49h5.79v26.49h-5.79Zm.05-30.02v-5.57h5.63v5.57h-5.63Z"/>
      <path d="m1056.57,241c-4.8,0-8.11-3.2-8.11-8.5v-10.32c0-5.24,3.31-8.55,8.11-8.55s7.67,3.26,7.67,8.5v1.71h-4.91v-2.59c0-1.77-.88-2.92-2.59-2.92s-2.65,1.16-2.65,3.03v11.98c0,1.88.94,2.98,2.65,2.98s2.59-1.16,2.59-2.87v-2.65h4.91v1.77c0,5.3-2.81,8.44-7.67,8.44Z"/>
      <path d="m1068.93,240.56v-26.49h5.79v26.49h-5.79Zm.05-30.02v-5.57h5.63v5.57h-5.63Z"/>
      <path d="m1095.42,241c-2.15,0-3.75-.99-4.3-3.37-1.27,2.21-3.31,3.37-5.9,3.37-3.48,0-6.02-2.48-6.02-6.79v-.77c0-5.35,4.47-7.4,10.65-8.94v-3.81c0-1.43-.72-2.32-2.26-2.32s-2.15.83-2.15,2.43v1.93h-5.3v-1.66c0-4.25,2.43-7.45,7.73-7.45s7.62,3.42,7.62,8.06v13.8c0,.88.39,1.32,1.32,1.38v4.14h-1.38Zm-5.57-12.86c-3.48.77-5.13,2.1-5.13,4.53v1.49c0,1.43.77,2.48,2.21,2.48,1.6,0,2.92-1.16,2.92-2.76v-5.74Z"/>
      <path d="m1101.16,240.56v-36.75h5.79v36.75h-5.79Z"/>
    </g>
  </g>
  <g>
    <rect x="318.72" y="203.02" width="8.69" height="27.33"/>
    <polygon points="375.23 216.82 361.57 203.02 352.88 203.02 352.88 230.35 361.57 230.35 361.57 215.64 375.23 230.35 383.94 230.35 383.94 203.02 375.23 203.02 375.23 216.82"/>
    <polygon points="445.54 230.35 462.94 230.35 462.94 223.61 454.24 223.61 454.24 219.7 462.94 219.7 462.94 212.95 454.24 212.95 454.24 209.52 462.94 209.52 462.94 203.02 445.54 203.02 445.54 230.35"/>
    <polygon points="513.72 209.52 516.68 209.52 516.68 230.35 525.38 230.35 525.38 203.02 513.72 203.02 513.72 209.52"/>
    <polygon points="597.56 209.51 600.54 209.51 600.54 230.35 609.24 230.35 609.24 203.01 597.56 203.01 597.56 209.51"/>
    <path d="m563.63,216.7c-2.05,0-3.72-1.44-3.72-3.22s1.67-3.23,3.72-3.23,3.74,1.44,3.74,3.23-1.67,3.22-3.74,3.22m-.01-13.72c-6.44,0-11.67,4.8-11.67,10.73,0,4.7,3.29,8.68,7.86,10.14l-4.19,6.5h9.94l7.74-10.67c1.25-1.71,1.97-3.76,1.97-5.97,0-5.93-5.22-10.73-11.66-10.73"/>
    <path d="m652.86,214.89c1.58-1.27,2.53-2.96,2.53-4.83,0-3.96-4.35-7.16-9.71-7.16-2.58,0-4.92.73-6.67,1.94,0,0-3.86,2.13-3.86,6.33h6.95c0-.71.73-1.32.73-1.32.57-.58,1.6-.97,2.58-.97,1.76,0,2.84.85,2.84,1.91,0,.76-.6,1.41-1.47,1.73,0,0-1.45.63-3.66.7v5.11c2.41.05,3.99.5,3.99.5,1.43.38,2.44,1.39,2.44,2.57,0,1.52-1.67,2.74-3.72,2.74-1.64,0-3.03-.78-3.53-1.86,0,0-.51-.86-.51-1.77h-7.15c0,3.36,1.84,5.61,1.84,5.61,1.92,2.51,5.38,4.17,9.32,4.17,6.05,0,10.94-3.92,10.94-8.74,0-2.68-1.51-5.08-3.89-6.68"/>
    <path d="m400.64,216.68c0,7.55,7.6,13.67,16.99,13.67,2.19,0,4.29-.33,6.21-.94v-.07s.01-8.04.01-8.04c-1.51,1.09-3.54,1.76-5.79,1.76-4.66,0-8.44-2.91-8.44-6.5s3.78-6.5,8.44-6.5c2.23,0,4.28.67,5.79,1.77v-7.87c-1.92-.61-4.03-.93-6.22-.93-9.39,0-16.99,6.1-16.99,13.65"/>
    <path d="m288.84,213.72s-2.3-.97-4.24-1.57c-.37-.11-2.22-.54-2.22-1.51,0-.8,2.1-1.45,4.27-1.12,0,0,2.65.14,7,3.22l2.33-6.38c-4.64-2.96-8.71-3.19-8.71-3.19-.5-.06-1.04-.1-1.57-.1-5.48,0-10.14,3.32-10.14,7.44,0,1.48.32,2.88,1.22,4.14,1.83,2.61,5.36,3.86,5.36,3.86,2.9,1.2,4.89,1.87,4.89,1.87,0,0,2.06.74,1.8,1.91-.18.82-1.79,1.08-3.54.75,0,0-2.68-.08-7.1-3.25l-2.86,7.07c4.76,3.07,8.93,3.31,8.93,3.31.53.07,1.06.1,1.62.1,6.7,0,10.2-3.46,10.2-7.72,0-2.01-.26-3.72-1.93-5.64,0,0-1.33-1.62-5.29-3.19"/>
    <path d="m449.36,86.71h-145.9s-29.37-.73-29.37,29.6c0,0-1.3,31.29,29.47,31.29h28.3s4.37-.23,4.37,3.02c0,0,1.08,4.68-4.16,4.68h-55.47c-1.34,0-1.15,1.2-1.15,1.2v22.91s.08,1.16,1.06,1.16h59.72s27.41,2.46,28.61-28.63c0,0,1.64-31.29-28.61-31.29h-28.92s-3.76.5-3.76-4.45c0,0-.4-4.21,3.76-4.21h67.22s1.25-.01,1.42,1.47v65.39s-.05,1.41,1.27,1.49h25.2c1.09-.28,1.07-1.43,1.07-1.43v-65.18s-.15-1.73,1.22-1.73h24.57s6.43.05,10.06-5.37l10-19.9Z"/>
    <path d="m728.24,178.99v-20.19c0-1.54-1.26-1.35-1.26-1.35h-35.94s-3.68.24-3.68-5.07v-64.36c0-1.59-1.24-1.43-1.24-1.43h-23.98c-1.34,0-1.26,1.56-1.26,1.56v76.77s.53,15.67,17.73,15.67h48.21s1.41-.08,1.41-1.58"/>
    <path d="m858.58,127.2l24.96-39.44s.75-1.2,2.08-1.2h26.82s.89.15.43.99l-38.37,59.35c-3.79,5.07-3.5,9.92-3.5,9.92v22.37s.13,1.31-1.29,1.4h-23.77c-1.39,0-1.33-1.4-1.33-1.4v-23.1c0-5.07-2.49-8.44-2.49-8.44l-24.09-37.1c-.29-.54-.94-.56-.94-.56h-50.24c-1.22,0-1.2,1.29-1.2,1.29v9.78s-.04,1.33,1.16,1.33h42.86s1.31-.06,1.31,1.61v19.08s.09,1.59-1.36,1.59h-42.47c-1.26,0-1.28,1.45-1.28,1.45v9.49s.16,1.45,1.24,1.45h46.62s1.36.02,1.36,1.65l.06,20.26s.05,1.63-1.47,1.63h-65.36c-11.44-.26-11.74-12.9-11.74-12.9v-79.47s-.05-1.65,1.24-1.65h93.9s.73.02,1.15.77l24.56,39.81s.42.77,1.14.05"/>
    <path d="m552.12,179.16s-.04,1.39,1.22,1.41h23.62s1.27-.01,1.27-1.41v-51.52s-.03-.49.32-.58c0,0,.28-.2.69.23l26.28,40.24c9.92,13.99,22.04,12.94,22.04,12.94h21.98v-92.17c0-1.79-1.45-1.72-1.45-1.72h-23.67c-1.28,0-1.21,1.72-1.21,1.72v53.4c-.06.78-.46.86-.46.86-.43.12-.75-.4-.75-.4l-28.42-44.15c-6.07-9.58-15.49-11.39-19.4-11.39h-22.06v92.55Z"/>
    <path d="m461.29,144.26c8.78-17.58,17.3-34.74,17.3-34.74,0,0,8.49,17.16,17.27,34.74h-34.57Zm39.63-46.74c-5.96-8.79-14.05-11.07-22.33-10.84-8.31-.24-15.84,1.66-22.37,10.84-14.96,28.4-43.08,83.06-43.08,83.06h29.82c1.15-2.16,3.88-7.53,7.35-14.42h29.62c4.8,0,9.28-1.56,12.37-7.65,1.71-3.35,3.88-7.61,5.37-10.6,7.32,14.66,14.43,28.81,16.49,32.67,13.69-.09,11.72-.09,29.82,0,0,0-28.65-56.88-43.08-83.06"/>
    <path d="m891.43,170.39c.98,0,2.13-.08,2.13-1.36,0-1.16-1.08-1.3-1.98-1.3h-1.51v2.65h1.35Zm-3.09-4.14h3.4c1.88,0,3.64.61,3.64,2.8,0,1.41-.81,2.44-2.27,2.65l2.6,4.32h-2.1l-2.26-4.14h-1.27v4.14h-1.74v-9.77Z"/>
    <path d="m891.6,163.61c-4.18,0-7.58,3.4-7.58,7.58s3.4,7.58,7.58,7.58,7.58-3.4,7.58-7.58-3.4-7.58-7.58-7.58m0,16.68c-5.02,0-9.1-4.08-9.1-9.1s4.08-9.1,9.1-9.1,9.1,4.08,9.1,9.1-4.08,9.1-9.1,9.1"/>
    <polygon points="167.28 223.37 159.53 221.01 153.28 230.35 183.27 230.35 188.38 206.09 163.46 199.7 167.28 223.37"/>
    <polygon points="80.99 183.25 75.54 224.74 68.83 221.52 64 230.35 91.64 230.35 102.72 201.1 80.99 183.25"/>
    <path d="m227.56,107.84l-75.17,9.24c-3.07.33-5.57,2.44-6.59,5.43,0,0,51.23-3.22,63.91-3.85,11.87-.6,16.14-3.02,17.84-10.83"/>
    <path d="m142.65,131.92l58.59-.63c7.59.22,10.88,0,13.8-6.7l-70.62,2.54-1.77,4.79Z"/>
    <path d="m101.11,132.18l-.2.14c-.8.55-1.89.39-2.51-.35l-3-4.27c0-.28.23-.51.51-.51,1.29,0,2.33-1.04,2.33-2.34v-2.36h-7.03v2.36c0,1.29,1.05,2.34,2.34,2.34.28,0,.51.23.51.51l-3.01,4.27c-.62.74-1.7.9-2.5.35l-.2-.14c-.84-.59-1.3-1.59-1.2-2.62l.77-7.82c0-.37.05-.74.16-1.09.17-.58.59-1.05,1.09-1.38,1.78-1.19,5.56-4.3,5.56-4.3h0s0,0,0,0c0,0,3.79,3.12,5.57,4.31.5.33.91.8,1.09,1.37.11.35.16.71.16,1.09l.77,7.82c.1,1.02-.36,2.02-1.21,2.62m42.6-27.18c-4.46.8-8.25,3.74-10.13,7.87l-10.46,21.47-4.93-11.69,5.15-5.02v-10.65l-4.36-1.11-8.68,2.14-7.36-3.39-8.09.93-7.95-.93-7.37,3.39-8.67-2.14-4.36,1.11v10.65l5.16,5.02-3.11,17.6,8.76,32.06,33.95,28.78-.88,22.18-7.06-2.26-5.82,9.35h29.64l13.51-41.97,54.75,13.67,11.12,21.32-6.58-2.17-5.11,9.16h25.52l5.45-6.97-5.07-26.07.03-34.72c3.53,0,6.4-2.86,6.4-6.4v-1.4h-6.39s-12.97-10.44-12.97-10.44c-5.88-4.73-13.21-7.29-20.76-7.26l-46.38-.24-9.66,10.04,11.23-29.19c1.23-2.93,3.9-4.99,7.05-5.43,9.52-1.3,25.63-5.18,70.85-10.57,12.23-1.46,16.14-9.76,16.25-15.08l-92.66,18.36Z"/>
    <path d="m81.21,86.89v14.21h27.06v-14.21c.44-.11.78-.49.78-.97,0-.56-.46-1.02-1.02-1.02s-1.02.46-1.02,1.02c0,.38.22.71.53.88h0l-2.38,4.2c-.82,1.49-2.99,1.44-3.72-.09l-1.78-4.14c.29-.18.5-.49.5-.85,0-.56-.46-1.02-1.02-1.02s-1.02.46-1.02,1.02c0,.39.22.71.54.88l-1.88,4.13c-.37.73-1.13,1.24-2,1.25h-.08c-.87-.01-1.63-.52-2-1.25l-1.88-4.13c.32-.17.54-.5.54-.88,0-.56-.46-1.02-1.02-1.02s-1.02.46-1.02,1.02c0,.37.2.68.5.85l-1.79,4.14c-.73,1.53-2.91,1.58-3.72.09l-2.38-4.2h0c.32-.18.53-.5.53-.88,0-.56-.46-1.02-1.02-1.02s-1.02.46-1.02,1.02c0,.47.33.86.78.97"/>
  </g>
</svg>